# xmcd
#
# Track frame offsets: 
#        150
#        12922
#        31330
#        45040
#        61677
#        72960
#        91010
#        100917
#        113075
#        128435
#        143547
#        165095
#        179922
#        190210
#
# Disc length: 2743 seconds
#
# Revision: 0
# Processed by: cddbd v1.5.1PL0 Copyright (c) Steve Scherf et al.
# Submitted via: ExactAudioCopy v0.95a3
#
DISCID=a10ab50e
DTITLE=Guilherme and Gustavo  - Orgulho De Ser Sertanejo
DYEAR=2004
DGENRE=Sertanejo
TTITLE0=Guilherme and Gustavo - Bica D'Água
TTITLE1=Guilherme and Gustavo - Estrada
TTITLE2=Guilherme and Gustavo - Explode Coração
TTITLE3=Guilherme and Gustavo - Foi Tudo Culpa do Amor
TTITLE4=Guilherme and Gustavo - O Gamadão
TTITLE5=Guilherme and Gustavo - Geração De Boiadeiro
TTITLE6=Guilherme and Gustavo - Homem De Pedra
TTITLE7=Guilherme and Gustavo - Lencinho De Inhandoti
TTITLE8=Guilherme and Gustavo - Paixão
TTITLE9=Guilherme and Gustavo - Pedacinhos
TTITLE10=Guilherme and Gustavo - Pot-Pourri De Boleros
TTITLE11=Guilherme and Gustavo - Velho Amor
TTITLE12=Guilherme and Gustavo - Viola Caboclinha
TTITLE13=Guilherme and Gustavo - Vivendo Longe Do Meu Bem
EXTD=
EXTT0=
EXTT1=
EXTT2=
EXTT3=
EXTT4=
EXTT5=
EXTT6=
EXTT7=
EXTT8=
EXTT9=
EXTT10=
EXTT11=
EXTT12=
EXTT13=
PLAYORDER=
